<?xml version="1.0" standalone="no"?>
<!DOCTYPE svg PUBLIC "-//W3C//DTD SVG 20010904//EN"
 "http://www.w3.org/TR/2001/REC-SVG-20010904/DTD/svg10.dtd">
<svg version="1.0" xmlns="http://www.w3.org/2000/svg"
 width="311.000000pt" height="311.000000pt" viewBox="0 0 311.000000 311.000000"
 preserveAspectRatio="xMidYMid meet">
<metadata>
Created by potrace 1.11, written by Peter Selinger 2001-2013
</metadata>
<g transform="translate(0.000000,311.000000) scale(0.100000,-0.100000)"
fill="#000000" stroke="none">
<path d="M1295 3095 c-570 -106 -1025 -490 -1213 -1026 -63 -180 -77 -271 -77
-514 0 -176 4 -237 19 -305 137 -635 621 -1109 1251 -1226 149 -28 442 -26
585 5 319 68 580 211 806 443 219 224 350 470 415 778 31 143 33 436 5 585
-116 623 -577 1100 -1203 1246 -119 28 -468 36 -588 14z m455 -200 c510 -77
939 -442 1093 -931 45 -141 60 -247 60 -404 0 -225 -39 -398 -136 -595 -193
-390 -548 -658 -982 -741 -121 -23 -349 -23 -469 0 -279 54 -520 181 -715 375
-534 533 -535 1378 -2 1912 307 307 731 448 1151 384z"/>
<path d="M2085 2181 c-19 -13 -148 -200 -360 -525 -181 -278 -334 -506 -339
-506 -4 0 -67 55 -140 123 -206 193 -198 187 -263 187 -51 0 -58 -3 -93 -38
-24 -24 -41 -52 -45 -74 -13 -68 13 -101 253 -322 122 -113 234 -213 247 -222
33 -22 109 -20 146 3 20 12 152 206 405 593 207 316 383 588 391 604 25 48 12
112 -30 154 -30 30 -44 36 -89 39 -41 3 -60 -1 -83 -16z"/>
</g>
</svg>
